<svg width="506" height="374" viewBox="0 0 506 374" fill="none" xmlns="http://www.w3.org/2000/svg">
<g clip-path="url(#clip0)">
<path d="M490.7 26.1C477.2 8.7 457 0 430.2 0H355.7C342.3 0 334.3 7.4 331.7 22.1L317.1 105V105.1C317.1 105.2 317 105.4 317 105.5L278.5 322H26C11.6 322 0 333.6 0 348C0 362.4 11.6 374 26 374H316.6C324.1 374 330.5 368.6 331.8 361.2L349.1 264V263.9C349.6 262.4 349.9 260.8 350.3 259L363 187.1H397C423.8 187.1 447 178.4 466.8 160.9C486.6 143.4 498.9 121 503.8 93.5C508.7 66 504.3 43.5 490.7 26.1ZM443.8 93.6C441.7 105.9 436.7 115.7 428.8 123.1C420.9 130.5 411.2 134.1 399.8 134.1H372.3L386.7 53H414.1C425.5 53 433.9 56.7 439.2 64C444.5 71.4 446 81.3 443.8 93.6Z" fill="#27378C"/>
<path d="M51.7 286H258L265 246.7H92.8C75.9 246.7 62.1 233 62.1 216V151.2C62.1 134.3 75.8 120.5 92.8 120.5H287.5L294.5 81.2H51.7C23.2 81.1 0 104.3 0 132.9V234.3C0 262.8 23.2 286 51.7 286Z" fill="#FFD55A"/>
</g>
<defs>
<clipPath id="clip0">
<rect width="505.7" height="374" fill="white"/>
</clipPath>
</defs>
</svg>
