<svg width="29" height="32" viewBox="0 0 29 32" fill="none" xmlns="http://www.w3.org/2000/svg">
<mask id="mask0_155_1835" style="mask-type:alpha" maskUnits="userSpaceOnUse" x="-1" y="0" width="30" height="32">
<path d="M25.9737 31.9999H2.28547C1.0231 31.9999 -0.000244141 30.9766 -0.000244141 29.7142V2.28571C-0.000244141 1.02335 1.0231 0 2.28547 0H17.6621L28.2594 10.5974V29.7142C28.2594 30.9766 27.2361 31.9999 25.9737 31.9999Z" fill="url(#paint0_linear_155_1835)"/>
</mask>
<g mask="url(#mask0_155_1835)">
<path d="M25.9745 31.9999H2.2862C1.02384 31.9999 0.000488281 30.9766 0.000488281 29.7142V2.28571C0.000488281 1.02335 1.02384 0 2.2862 0H17.6628L28.2602 10.5974V29.7142C28.2602 30.9766 27.2368 31.9999 25.9745 31.9999Z" fill="url(#paint1_linear_155_1835)"/>
<g opacity="0.27" filter="url(#filter0_f_155_1835)">
<rect x="4.98755" y="15.4805" width="18.4935" height="8.72725" fill="#0072A2" style="mix-blend-mode:darken"/>
</g>
<path d="M5.5854 23.0645C5.48144 23.0645 5.39389 23.0289 5.32276 22.9578C5.25162 22.8866 5.21605 22.7991 5.21605 22.6951V17.713C5.21605 17.609 5.25162 17.5215 5.32276 17.4503C5.39389 17.3737 5.48144 17.3354 5.5854 17.3354H7.23517C7.85896 17.3354 8.38699 17.475 8.81927 17.754C9.25702 18.0276 9.58533 18.3833 9.8042 18.821C10.0231 19.2588 10.1325 19.7184 10.1325 20.1999C10.1325 20.6815 10.0231 21.1411 9.8042 21.5788C9.58533 22.0166 9.25702 22.375 8.81927 22.6541C8.38699 22.9277 7.85896 23.0645 7.23517 23.0645H5.5854ZM7.14488 22.3668C7.59357 22.3668 7.98755 22.2765 8.3268 22.0959C8.66606 21.9099 8.92871 21.6555 9.11475 21.3326C9.30079 21.0043 9.39381 20.6267 9.39381 20.1999C9.39381 19.7731 9.30079 19.3983 9.11475 19.0755C8.92871 18.7472 8.66606 18.4927 8.3268 18.3122C7.98755 18.1261 7.59357 18.0331 7.14488 18.0331H5.96296V22.3668H7.14488ZM14.4906 23.1465C13.9161 23.1465 13.4127 23.0207 12.9804 22.769C12.5481 22.5173 12.2144 22.1698 11.9791 21.7266C11.7438 21.2834 11.6207 20.7745 11.6097 20.1999C11.6207 19.6254 11.7438 19.1165 11.9791 18.6733C12.2144 18.2301 12.5481 17.8826 12.9804 17.6309C13.4127 17.3792 13.9161 17.2533 14.4906 17.2533C15.0652 17.2533 15.5659 17.3792 15.9927 17.6309C16.4249 17.8826 16.7587 18.2328 16.994 18.6815C17.2348 19.1247 17.3606 19.6309 17.3716 20.1999C17.3606 20.769 17.2348 21.2779 16.994 21.7266C16.7587 22.1698 16.4249 22.5173 15.9927 22.769C15.5659 23.0207 15.0652 23.1465 14.4906 23.1465ZM14.4906 22.4489C14.9284 22.4489 15.3087 22.3504 15.6315 22.1534C15.9544 21.9564 16.2006 21.6883 16.3702 21.349C16.5399 21.0098 16.6247 20.6267 16.6247 20.1999C16.6247 19.7731 16.5399 19.3901 16.3702 19.0509C16.2006 18.7116 15.9544 18.4435 15.6315 18.2465C15.3087 18.0495 14.9284 17.951 14.4906 17.951C14.0474 17.951 13.6644 18.0495 13.3416 18.2465C13.0242 18.4435 12.7807 18.7116 12.6111 19.0509C12.4414 19.3901 12.3566 19.7731 12.3566 20.1999C12.3566 20.6267 12.4414 21.0098 12.6111 21.349C12.7807 21.6883 13.0242 21.9564 13.3416 22.1534C13.6644 22.3504 14.0474 22.4489 14.4906 22.4489ZM21.7178 23.1465C21.1706 23.1465 20.6781 23.0289 20.2404 22.7936C19.8081 22.5528 19.4661 22.2108 19.2144 21.7676C18.9682 21.3189 18.8451 20.7964 18.8451 20.1999C18.8451 19.6035 18.9682 19.0837 19.2144 18.6405C19.4661 18.1918 19.8081 17.8498 20.2404 17.6145C20.6781 17.3737 21.1706 17.2533 21.7178 17.2533C22.0899 17.2533 22.4209 17.2971 22.7109 17.3847C23.0064 17.4722 23.2992 17.5981 23.5892 17.7622C23.7095 17.8279 23.7697 17.9319 23.7697 18.0741C23.7697 18.1562 23.7396 18.2301 23.6794 18.2957C23.6193 18.3559 23.5399 18.386 23.4414 18.386C23.3867 18.386 23.3375 18.3751 23.2937 18.3532C23.0529 18.2273 22.8176 18.1316 22.5878 18.0659C22.358 18.0003 22.0926 17.9674 21.7917 17.9674C21.3211 17.9674 20.9189 18.0659 20.5851 18.2629C20.2568 18.4544 20.0078 18.7198 19.8382 19.0591C19.6741 19.3928 19.592 19.7731 19.592 20.1999C19.592 20.6267 19.6741 21.0098 19.8382 21.349C20.0078 21.6828 20.2568 21.9482 20.5851 22.1452C20.9189 22.3367 21.3211 22.4325 21.7917 22.4325C22.0926 22.4325 22.358 22.3996 22.5878 22.334C22.8176 22.2683 23.0529 22.1725 23.2937 22.0467C23.3375 22.0248 23.3867 22.0139 23.4414 22.0139C23.5399 22.0139 23.6193 22.044 23.6794 22.1041C23.7396 22.1643 23.7697 22.2382 23.7697 22.3258C23.7697 22.468 23.7095 22.572 23.5892 22.6376C23.2992 22.8018 23.0064 22.9277 22.7109 23.0152C22.4209 23.1028 22.0899 23.1465 21.7178 23.1465Z" fill="white"/>
<path d="M5.32276 22.9578L5.46969 22.8108H5.46969L5.32276 22.9578ZM5.32276 17.4503L5.46979 17.5974L5.47502 17.5917L5.32276 17.4503ZM8.81927 17.754L8.70656 17.9286L8.70914 17.9302L8.81927 17.754ZM9.8042 18.821L9.61835 18.914L9.8042 18.821ZM9.8042 21.5788L9.61835 21.4859V21.4859L9.8042 21.5788ZM8.81927 22.6541L8.9304 22.8296L8.93097 22.8293L8.81927 22.6541ZM8.3268 22.0959L8.42444 22.2794L8.42671 22.2781L8.3268 22.0959ZM9.11475 21.3326L9.29479 21.4364L9.29553 21.4351L9.11475 21.3326ZM9.11475 19.0755L8.93396 19.1779L8.93471 19.1792L9.11475 19.0755ZM8.3268 18.3122L8.22688 18.4944L8.22917 18.4956L8.3268 18.3122ZM5.96296 18.0331V17.8253H5.75517V18.0331H5.96296ZM5.96296 22.3668H5.75517V22.5746H5.96296V22.3668ZM5.5854 22.8567C5.53449 22.8567 5.50042 22.8416 5.46969 22.8108L5.17582 23.1047C5.28736 23.2162 5.42839 23.2722 5.5854 23.2722V22.8567ZM5.46969 22.8108C5.43895 22.7801 5.42385 22.746 5.42385 22.6951H5.00826C5.00826 22.8521 5.06429 22.9931 5.17582 23.1047L5.46969 22.8108ZM5.42385 22.6951V17.713H5.00826V22.6951H5.42385ZM5.42385 17.713C5.42385 17.6621 5.43895 17.628 5.46969 17.5973L5.17582 17.3034C5.06429 17.4149 5.00826 17.556 5.00826 17.713H5.42385ZM5.47502 17.5917C5.50709 17.5572 5.53958 17.5432 5.5854 17.5432V17.1276C5.4233 17.1276 5.28069 17.1903 5.17049 17.3089L5.47502 17.5917ZM5.5854 17.5432H7.23517V17.1276H5.5854V17.5432ZM7.23517 17.5432C7.82754 17.5432 8.31441 17.6754 8.70657 17.9286L8.93197 17.5794C8.45957 17.2745 7.89038 17.1276 7.23517 17.1276V17.5432ZM8.70914 17.9302C9.11632 18.1847 9.41752 18.5123 9.61835 18.914L9.99006 18.7281C9.75313 18.2543 9.39771 17.8705 8.9294 17.5778L8.70914 17.9302ZM9.61835 18.914C9.82304 19.3233 9.92472 19.7512 9.92472 20.1999H10.3403C10.3403 19.6856 10.2231 19.1942 9.99006 18.7281L9.61835 18.914ZM9.92472 20.1999C9.92472 20.6487 9.82304 21.0765 9.61835 21.4859L9.99006 21.6718C10.2231 21.2057 10.3403 20.7143 10.3403 20.1999H9.92472ZM9.61835 21.4859C9.41732 21.888 9.11561 22.2187 8.70757 22.4788L8.93097 22.8293C9.39842 22.5313 9.75333 22.1452 9.99006 21.6718L9.61835 21.4859ZM8.70814 22.4785C8.31575 22.7268 7.82828 22.8567 7.23517 22.8567V23.2722C7.88963 23.2722 8.45824 23.1285 8.93039 22.8296L8.70814 22.4785ZM7.23517 22.8567H5.5854V23.2722H7.23517V22.8567ZM7.14488 22.5746C7.6219 22.5746 8.05045 22.4784 8.42443 22.2794L8.22917 21.9125C7.92464 22.0746 7.56524 22.159 7.14488 22.159V22.5746ZM8.42671 22.2781C8.79802 22.0745 9.08898 21.7935 9.29479 21.4364L8.93471 21.2289C8.76843 21.5174 8.5341 21.7453 8.22689 21.9137L8.42671 22.2781ZM9.29553 21.4351C9.5015 21.0716 9.6016 20.6579 9.6016 20.1999H9.18602C9.18602 20.5956 9.10009 20.937 8.93396 21.2302L9.29553 21.4351ZM9.6016 20.1999C9.6016 19.7421 9.50152 19.3305 9.29479 18.9717L8.93471 19.1792C9.10006 19.4662 9.18602 19.8042 9.18602 20.1999H9.6016ZM9.29553 18.973C9.08965 18.6097 8.79785 18.3275 8.42443 18.1287L8.22917 18.4956C8.53426 18.658 8.76776 18.8846 8.93396 19.1779L9.29553 18.973ZM8.42671 18.13C8.05226 17.9246 7.62288 17.8253 7.14488 17.8253V18.2409C7.56426 18.2409 7.92283 18.3276 8.22689 18.4943L8.42671 18.13ZM7.14488 17.8253H5.96296V18.2409H7.14488V17.8253ZM5.75517 18.0331V22.3668H6.17075V18.0331H5.75517ZM5.96296 22.5746H7.14488V22.159H5.96296V22.5746ZM12.9804 22.769L13.085 22.5894L12.9804 22.769ZM11.9791 21.7266L11.7955 21.824L11.9791 21.7266ZM11.6097 20.1999L11.4018 20.196L11.402 20.2039L11.6097 20.1999ZM11.9791 18.6733L12.1626 18.7707L11.9791 18.6733ZM12.9804 17.6309L12.8759 17.4513V17.4513L12.9804 17.6309ZM15.9927 17.6309L15.8871 17.8099L15.8881 17.8105L15.9927 17.6309ZM16.994 18.6815L16.81 18.778L16.8114 18.7807L16.994 18.6815ZM17.3716 20.1999L17.5795 20.2039L17.5793 20.1959L17.3716 20.1999ZM16.994 21.7266L16.8109 21.6283L16.8105 21.6292L16.994 21.7266ZM15.9927 22.769L15.8881 22.5894L15.8871 22.59L15.9927 22.769ZM15.6315 22.1534L15.5233 21.976L15.6315 22.1534ZM16.3702 21.349L16.5561 21.442L16.3702 21.349ZM16.3702 19.0509L16.5561 18.9579L16.3702 19.0509ZM15.6315 18.2465L15.5233 18.4239L15.6315 18.2465ZM13.3416 18.2465L13.2333 18.0691L13.232 18.0699L13.3416 18.2465ZM12.6111 19.0509L12.4252 18.9579L12.6111 19.0509ZM12.6111 21.349L12.4252 21.442L12.6111 21.349ZM13.3416 22.1534L13.232 22.3299L13.2333 22.3308L13.3416 22.1534ZM14.4906 22.9387C13.9473 22.9387 13.481 22.82 13.085 22.5894L12.8759 22.9485C13.3443 23.2213 13.8849 23.3543 14.4906 23.3543V22.9387ZM13.085 22.5894C12.6863 22.3573 12.3798 22.0383 12.1626 21.6292L11.7955 21.824C12.0489 22.3013 12.41 22.6773 12.8759 22.9485L13.085 22.5894ZM12.1626 21.6292C11.9447 21.2187 11.8279 20.7427 11.8175 20.196L11.402 20.2039C11.4134 20.8063 11.5429 21.348 11.7955 21.824L12.1626 21.6292ZM11.8175 20.2039C11.8279 19.6572 11.9447 19.1812 12.1626 18.7707L11.7955 18.5759C11.5429 19.0518 11.4134 19.5936 11.402 20.196L11.8175 20.2039ZM12.1626 18.7707C12.3798 18.3616 12.6863 18.0426 13.085 17.8105L12.8759 17.4513C12.41 17.7226 12.0489 18.0986 11.7955 18.5759L12.1626 18.7707ZM13.085 17.8105C13.481 17.5799 13.9473 17.4611 14.4906 17.4611V17.0456C13.8849 17.0456 13.3443 17.1785 12.8759 17.4513L13.085 17.8105ZM14.4906 17.4611C15.0341 17.4611 15.4971 17.5799 15.8871 17.8099L16.0982 17.4519C15.6346 17.1785 15.0963 17.0456 14.4906 17.0456V17.4611ZM15.8881 17.8105C16.2862 18.0422 16.5926 18.3635 16.81 18.778L17.178 18.585C16.9249 18.1022 16.5637 17.723 16.0972 17.4513L15.8881 17.8105ZM16.8114 18.7807C17.0344 19.1911 17.1534 19.6638 17.1638 20.2039L17.5793 20.1959C17.5678 19.5979 17.4352 19.0584 17.1766 18.5823L16.8114 18.7807ZM17.1638 20.1959C17.1534 20.736 17.0344 21.2119 16.8109 21.6283L17.1771 21.8248C17.4352 21.3438 17.5678 20.802 17.5793 20.2039L17.1638 20.1959ZM16.8105 21.6292C16.5933 22.0383 16.2868 22.3573 15.8881 22.5894L16.0972 22.9485C16.5631 22.6773 16.9242 22.3013 17.1776 21.824L16.8105 21.6292ZM15.8871 22.59C15.4971 22.82 15.0341 22.9387 14.4906 22.9387V23.3543C15.0963 23.3543 15.6346 23.2214 16.0982 22.948L15.8871 22.59ZM14.4906 22.6567C14.9605 22.6567 15.3795 22.5506 15.7398 22.3308L15.5233 21.976C15.2379 22.1501 14.8963 22.2411 14.4906 22.2411V22.6567ZM15.7398 22.3308C16.096 22.1134 16.3691 21.816 16.5561 21.442L16.1844 21.2561C16.0321 21.5606 15.8127 21.7994 15.5233 21.976L15.7398 22.3308ZM16.5561 21.442C16.7419 21.0704 16.8325 20.6549 16.8325 20.1999H16.4169C16.4169 20.5986 16.3379 20.9491 16.1844 21.2561L16.5561 21.442ZM16.8325 20.1999C16.8325 19.745 16.7419 19.3295 16.5561 18.9579L16.1844 19.1438C16.3379 19.4507 16.4169 19.8013 16.4169 20.1999H16.8325ZM16.5561 18.9579C16.3691 18.5839 16.096 18.2865 15.7398 18.0691L15.5233 18.4239C15.8127 18.6005 16.0321 18.8393 16.1844 19.1438L16.5561 18.9579ZM15.7398 18.0691C15.3795 17.8493 14.9605 17.7432 14.4906 17.7432V18.1588C14.8963 18.1588 15.2379 18.2497 15.5233 18.4239L15.7398 18.0691ZM14.4906 17.7432C14.0159 17.7432 13.594 17.849 13.2333 18.0691L13.4498 18.4239C13.7348 18.25 14.079 18.1588 14.4906 18.1588V17.7432ZM13.232 18.0699C12.8814 18.2875 12.6118 18.5848 12.4252 18.9579L12.7969 19.1438C12.9496 18.8384 13.167 18.5994 13.4511 18.423L13.232 18.0699ZM12.4252 18.9579C12.2394 19.3295 12.1488 19.745 12.1488 20.1999H12.5644C12.5644 19.8013 12.6434 19.4507 12.7969 19.1438L12.4252 18.9579ZM12.1488 20.1999C12.1488 20.6549 12.2394 21.0704 12.4252 21.442L12.7969 21.2561C12.6434 20.9491 12.5644 20.5986 12.5644 20.1999H12.1488ZM12.4252 21.442C12.6118 21.815 12.8814 22.1123 13.232 22.3299L13.4511 21.9768C13.167 21.8005 12.9496 21.5615 12.7969 21.2561L12.4252 21.442ZM13.2333 22.3308C13.594 22.5508 14.0159 22.6567 14.4906 22.6567V22.2411C14.079 22.2411 13.7348 22.1499 13.4498 21.976L13.2333 22.3308ZM20.2404 22.7936L20.1393 22.9752L20.142 22.9766L20.2404 22.7936ZM19.2144 21.7676L19.0322 21.8676L19.0337 21.8702L19.2144 21.7676ZM19.2144 18.6405L19.0332 18.5388L19.0328 18.5395L19.2144 18.6405ZM20.2404 17.6145L20.3397 17.797L20.3405 17.7966L20.2404 17.6145ZM22.7109 17.3847L22.6509 17.5836L22.6519 17.5839L22.7109 17.3847ZM23.5892 17.7622L23.4868 17.9431L23.4897 17.9446L23.5892 17.7622ZM23.6794 18.2957L23.8265 18.4428L23.8326 18.4361L23.6794 18.2957ZM23.2937 18.3532L23.1974 18.5374L23.2008 18.539L23.2937 18.3532ZM22.5878 18.0659L22.6449 17.8661L22.5878 18.0659ZM20.5851 18.2629L20.6898 18.4424L20.6907 18.4419L20.5851 18.2629ZM19.8382 19.0591L19.6523 18.9661L19.6517 18.9674L19.8382 19.0591ZM19.8382 21.349L19.6511 21.4396L19.653 21.4432L19.8382 21.349ZM20.5851 22.1452L20.4782 22.3234L20.4817 22.3254L20.5851 22.1452ZM22.5878 22.334L22.6449 22.5338L22.5878 22.334ZM23.2937 22.0467L23.2007 21.8608L23.1974 21.8625L23.2937 22.0467ZM23.6794 22.1041L23.8264 21.9572V21.9572L23.6794 22.1041ZM23.5892 22.6376L23.4896 22.4552L23.4868 22.4568L23.5892 22.6376ZM22.7109 23.0152L22.6519 22.816L22.6509 22.8163L22.7109 23.0152ZM21.7178 22.9387C21.2014 22.9387 20.7433 22.828 20.3388 22.6106L20.142 22.9766C20.613 23.2298 21.1398 23.3543 21.7178 23.3543V22.9387ZM20.3415 22.6121C19.9435 22.3904 19.6286 22.0762 19.3951 21.665L19.0337 21.8702C19.3036 22.3455 19.6727 22.7153 20.1393 22.9751L20.3415 22.6121ZM19.3966 21.6677C19.1698 21.2543 19.0529 20.7672 19.0529 20.1999H18.6373C18.6373 20.8255 18.7666 21.3835 19.0323 21.8676L19.3966 21.6677ZM19.0529 20.1999C19.0529 19.6326 19.1698 19.1487 19.3961 18.7414L19.0328 18.5395C18.7666 19.0187 18.6373 19.5744 18.6373 20.1999H19.0529ZM19.3956 18.7421C19.6291 18.3259 19.9434 18.0127 20.3397 17.797L20.141 17.432C19.6728 17.6868 19.3031 18.0576 19.0332 18.5388L19.3956 18.7421ZM20.3405 17.7966C20.7447 17.5742 21.2022 17.4611 21.7178 17.4611V17.0456C21.139 17.0456 20.6115 17.1732 20.1402 17.4324L20.3405 17.7966ZM21.7178 17.4611C22.074 17.4611 22.3842 17.5031 22.6509 17.5836L22.771 17.1857C22.4577 17.0912 22.1058 17.0456 21.7178 17.0456V17.4611ZM22.6519 17.5839C22.9311 17.6666 23.2094 17.786 23.4868 17.9431L23.6915 17.5814C23.3889 17.4101 23.0817 17.2778 22.77 17.1854L22.6519 17.5839ZM23.4897 17.9446C23.5212 17.9619 23.5363 17.979 23.5448 17.9936C23.5534 18.0085 23.5619 18.0328 23.5619 18.0741H23.9775C23.9775 17.9732 23.9559 17.8743 23.9044 17.7853C23.8527 17.6959 23.7775 17.6283 23.6887 17.5798L23.4897 17.9446ZM23.5619 18.0741C23.5619 18.0996 23.5546 18.1244 23.5263 18.1553L23.8326 18.4361C23.9247 18.3357 23.9775 18.2128 23.9775 18.0741H23.5619ZM23.5325 18.1488C23.5175 18.1639 23.4942 18.1782 23.4414 18.1782V18.5938C23.5857 18.5938 23.7211 18.548 23.8264 18.4427L23.5325 18.1488ZM23.4414 18.1782C23.4151 18.1782 23.3983 18.1732 23.3866 18.1673L23.2008 18.539C23.2766 18.577 23.3583 18.5938 23.4414 18.5938V18.1782ZM23.3899 18.169C23.1383 18.0375 22.89 17.9361 22.6449 17.8661L22.5307 18.2657C22.7453 18.327 22.9675 18.4171 23.1974 18.5373L23.3899 18.169ZM22.6449 17.8661C22.3924 17.794 22.1072 17.7596 21.7917 17.7596V18.1752C22.0781 18.1752 22.3235 18.2065 22.5307 18.2657L22.6449 17.8661ZM21.7917 17.7596C21.2919 17.7596 20.8515 17.8644 20.4795 18.084L20.6907 18.4419C20.9863 18.2674 21.3503 18.1752 21.7917 18.1752V17.7596ZM20.4804 18.0834C20.1173 18.2952 19.8401 18.5907 19.6524 18.9661L20.0241 19.152C20.1756 18.8489 20.3963 18.6136 20.6898 18.4424L20.4804 18.0834ZM19.6517 18.9674C19.4716 19.3336 19.3842 19.746 19.3842 20.1999H19.7998C19.7998 19.8002 19.8765 19.4521 20.0247 19.1508L19.6517 18.9674ZM19.3842 20.1999C19.3842 20.6539 19.4716 21.0685 19.6512 21.4395L20.0253 21.2585C19.8765 20.951 19.7998 20.5996 19.7998 20.1999H19.3842ZM19.653 21.4432C19.8407 21.8126 20.1172 22.1068 20.4782 22.3234L20.692 21.967C20.3964 21.7896 20.175 21.553 20.0235 21.2549L19.653 21.4432ZM20.4817 22.3254C20.8533 22.5386 21.2928 22.6402 21.7917 22.6402V22.2247C21.3493 22.2247 20.9845 22.1348 20.6885 21.965L20.4817 22.3254ZM21.7917 22.6402C22.1072 22.6402 22.3924 22.6059 22.6449 22.5338L22.5307 22.1342C22.3235 22.1934 22.0781 22.2247 21.7917 22.2247V22.6402ZM22.6449 22.5338C22.89 22.4637 23.1383 22.3624 23.3899 22.2308L23.1974 21.8625C22.9675 21.9827 22.7453 22.0729 22.5307 22.1342L22.6449 22.5338ZM23.3866 22.2325C23.3983 22.2267 23.4151 22.2216 23.4414 22.2216V21.8061C23.3583 21.8061 23.2766 21.8229 23.2008 21.8608L23.3866 22.2325ZM23.4414 22.2216C23.4942 22.2216 23.5175 22.236 23.5325 22.2511L23.8264 21.9572C23.7211 21.8519 23.5857 21.8061 23.4414 21.8061V22.2216ZM23.5325 22.2511C23.5525 22.2711 23.5619 22.2916 23.5619 22.3258H23.9775C23.9775 22.1849 23.9268 22.0576 23.8264 21.9572L23.5325 22.2511ZM23.5619 22.3258C23.5619 22.3671 23.5534 22.3914 23.5448 22.4063C23.5363 22.4209 23.5212 22.438 23.4897 22.4552L23.6887 22.8201C23.7775 22.7716 23.8527 22.704 23.9044 22.6145C23.9559 22.5255 23.9775 22.4267 23.9775 22.3258H23.5619ZM23.4868 22.4568C23.2094 22.6138 22.9311 22.7332 22.6519 22.816L22.77 23.2144C23.0817 23.1221 23.3889 22.9898 23.6915 22.8185L23.4868 22.4568ZM22.6509 22.8163C22.3842 22.8968 22.074 22.9387 21.7178 22.9387V23.3543C22.1058 23.3543 22.4577 23.3087 22.771 23.2141L22.6509 22.8163Z" fill="white"/>
<mask id="mask1_155_1835" style="mask-type:alpha" maskUnits="userSpaceOnUse" x="0" y="0" width="29" height="32">
<path d="M25.9747 31.9999H2.28644C1.02408 31.9999 0.000732422 30.9766 0.000732422 29.7142V2.28571C0.000732422 1.02335 1.02408 0 2.28644 0H17.663L28.2604 10.5974V29.7142C28.2604 30.9766 27.2371 31.9999 25.9747 31.9999Z" fill="url(#paint2_linear_155_1835)"/>
</mask>
<g mask="url(#mask1_155_1835)">
<ellipse opacity="0.05" cx="-1.50583" cy="-1.29831" rx="23.2207" ry="22.2857" fill="url(#paint3_linear_155_1835)"/>
<ellipse opacity="0.07" cx="-1.5059" cy="-1.29846" rx="14.5974" ry="13.974" fill="url(#paint4_linear_155_1835)"/>
</g>
<g filter="url(#filter1_d_155_1835)">
<path d="M28.2605 10.5974H19.9488C18.6864 10.5974 17.6631 9.57404 17.6631 8.31167V0L28.2605 10.5974Z" fill="url(#paint5_linear_155_1835)"/>
</g>
<g opacity="0.11">
<line x1="7.58447" y1="13.611" x2="20.6754" y2="13.611" stroke="white" stroke-width="1.24675"/>
<line x1="7.58447" y1="16.7282" x2="20.6754" y2="16.7282" stroke="white" stroke-width="1.24675"/>
<line x1="7.58447" y1="19.8444" x2="20.6754" y2="19.8444" stroke="white" stroke-width="1.24675"/>
<line x1="7.58447" y1="22.9616" x2="20.6754" y2="22.9616" stroke="white" stroke-width="1.24675"/>
<line x1="7.58447" y1="26.0778" x2="20.6754" y2="26.0778" stroke="white" stroke-width="1.24675"/>
</g>
</g>
<defs>
<filter id="filter0_f_155_1835" x="0.935609" y="11.4285" width="26.5973" height="16.8314" filterUnits="userSpaceOnUse" color-interpolation-filters="sRGB">
<feFlood flood-opacity="0" result="BackgroundImageFix"/>
<feBlend mode="normal" in="SourceGraphic" in2="BackgroundImageFix" result="shape"/>
<feGaussianBlur stdDeviation="2.02597" result="effect1_foregroundBlur_155_1835"/>
</filter>
<filter id="filter1_d_155_1835" x="15.2735" y="-2.4935" width="15.7922" height="15.7925" filterUnits="userSpaceOnUse" color-interpolation-filters="sRGB">
<feFlood flood-opacity="0" result="BackgroundImageFix"/>
<feColorMatrix in="SourceAlpha" type="matrix" values="0 0 0 0 0 0 0 0 0 0 0 0 0 0 0 0 0 0 127 0" result="hardAlpha"/>
<feOffset dx="0.207792" dy="0.103896"/>
<feGaussianBlur stdDeviation="1.2987"/>
<feColorMatrix type="matrix" values="0 0 0 0 0 0 0 0 0 0 0 0 0 0 0 0 0 0 0.33 0"/>
<feBlend mode="normal" in2="BackgroundImageFix" result="effect1_dropShadow_155_1835"/>
<feBlend mode="normal" in="SourceGraphic" in2="effect1_dropShadow_155_1835" result="shape"/>
</filter>
<linearGradient id="paint0_linear_155_1835" x1="14.1296" y1="0" x2="14.1296" y2="31.9999" gradientUnits="userSpaceOnUse">
<stop stop-color="#FF7979"/>
<stop offset="1" stop-color="#E85555"/>
</linearGradient>
<linearGradient id="paint1_linear_155_1835" x1="14.1303" y1="0" x2="14.1303" y2="31.9999" gradientUnits="userSpaceOnUse">
<stop stop-color="#6ABDF8"/>
<stop offset="1" stop-color="#008BD6"/>
</linearGradient>
<linearGradient id="paint2_linear_155_1835" x1="14.1306" y1="0" x2="14.1306" y2="31.9999" gradientUnits="userSpaceOnUse">
<stop stop-color="#6ABDF8"/>
<stop offset="1" stop-color="#008BD6"/>
</linearGradient>
<linearGradient id="paint3_linear_155_1835" x1="0.180166" y1="-0.532483" x2="7.22215" y2="18.157" gradientUnits="userSpaceOnUse">
<stop stop-color="white" stop-opacity="0"/>
<stop offset="1" stop-color="white"/>
</linearGradient>
<linearGradient id="paint4_linear_155_1835" x1="-0.446023" y1="-0.818256" x2="3.96115" y2="10.9082" gradientUnits="userSpaceOnUse">
<stop stop-color="white" stop-opacity="0"/>
<stop offset="1" stop-color="white"/>
</linearGradient>
<linearGradient id="paint5_linear_155_1835" x1="22.9618" y1="0" x2="22.9618" y2="10.5974" gradientUnits="userSpaceOnUse">
<stop stop-color="#009FE3"/>
<stop offset="1" stop-color="#0087C1"/>
</linearGradient>
</defs>
</svg>
