<svg width="28" height="32" viewBox="0 0 28 32" fill="none" xmlns="http://www.w3.org/2000/svg">
<mask id="mask0_155_1801" style="mask-type:alpha" maskUnits="userSpaceOnUse" x="0" y="0" width="29" height="32">
<path d="M25.7355 31.9999H2.26495C1.01419 31.9999 0.000244141 30.9766 0.000244141 29.7142V2.28571C0.000244141 1.02335 1.01419 0 2.26495 0H17.5002L28.0002 10.5974V29.7142C28.0002 30.9766 26.9863 31.9999 25.7355 31.9999Z" fill="url(#paint0_linear_155_1801)"/>
</mask>
<g mask="url(#mask0_155_1801)">
<path d="M25.7358 31.9999H2.26519C1.01443 31.9999 0.000488281 30.9766 0.000488281 29.7142V2.28571C0.000488281 1.02335 1.01443 0 2.26519 0H17.5005L28.0005 10.5974V29.7142C28.0005 30.9766 26.9865 31.9999 25.7358 31.9999Z" fill="url(#paint1_linear_155_1801)"/>
<path opacity="0.12" fill-rule="evenodd" clip-rule="evenodd" d="M20.486 14.4421H7.51538V13.1953H20.486V14.4421ZM20.486 17.5583H7.51538V16.3115H20.486V17.5583ZM7.51538 20.6755H20.486V19.4287H7.51538V20.6755ZM20.486 23.7926H7.51538V22.5459H20.486V23.7926ZM7.51538 26.9089H20.486V25.6621H7.51538V26.9089Z" fill="white"/>
<path d="M6.41624 23.1055C6.31227 23.1055 6.22472 23.0699 6.15359 22.9988C6.08245 22.9277 6.04689 22.8401 6.04689 22.7361V17.713C6.04689 17.609 6.08245 17.5215 6.15359 17.4503C6.22472 17.3737 6.31227 17.3354 6.41624 17.3354H8.28761C8.80744 17.3354 9.2315 17.423 9.55982 17.5981C9.88813 17.7732 10.1234 17.9975 10.2657 18.2711C10.408 18.5447 10.4791 18.8402 10.4791 19.1576C10.4791 19.4749 10.408 19.7704 10.2657 20.044C10.1234 20.3176 9.88813 20.5419 9.55982 20.717C9.2315 20.8921 8.80744 20.9797 8.28761 20.9797H6.79379V22.7361C6.79379 22.8401 6.75549 22.9277 6.67889 22.9988C6.60775 23.0699 6.5202 23.1055 6.41624 23.1055ZM8.21374 20.2738C8.77187 20.2738 9.16311 20.1671 9.38745 19.9537C9.61727 19.7403 9.73218 19.4749 9.73218 19.1576C9.73218 18.8402 9.61727 18.5748 9.38745 18.3614C9.16311 18.148 8.77187 18.0413 8.21374 18.0413H6.79379V20.2738H8.21374ZM12.5054 23.0645C12.4014 23.0645 12.3139 23.0289 12.2427 22.9578C12.1716 22.8866 12.136 22.7991 12.136 22.6951V17.713C12.136 17.609 12.1716 17.5215 12.2427 17.4503C12.3139 17.3737 12.4014 17.3354 12.5054 17.3354H14.1551C14.7789 17.3354 15.307 17.475 15.7392 17.754C16.177 18.0276 16.5053 18.3833 16.7242 18.821C16.9431 19.2588 17.0525 19.7184 17.0525 20.1999C17.0525 20.6815 16.9431 21.1411 16.7242 21.5788C16.5053 22.0166 16.177 22.375 15.7392 22.6541C15.307 22.9277 14.7789 23.0645 14.1551 23.0645H12.5054ZM14.0649 22.3668C14.5135 22.3668 14.9075 22.2765 15.2468 22.0959C15.586 21.9099 15.8487 21.6555 16.0347 21.3326C16.2208 21.0043 16.3138 20.6267 16.3138 20.1999C16.3138 19.7731 16.2208 19.3983 16.0347 19.0755C15.8487 18.7472 15.586 18.4927 15.2468 18.3122C14.9075 18.1261 14.5135 18.0331 14.0649 18.0331H12.8829V22.3668H14.0649ZM19.2438 23.1055C19.1398 23.1055 19.0523 23.0699 18.9811 22.9988C18.91 22.9277 18.8744 22.8401 18.8744 22.7361V17.713C18.8744 17.609 18.91 17.5215 18.9811 17.4503C19.0523 17.3737 19.1398 17.3354 19.2438 17.3354H22.4366C22.5351 17.3354 22.6172 17.371 22.6828 17.4421C22.754 17.5078 22.7895 17.5899 22.7895 17.6884C22.7895 17.7869 22.754 17.8689 22.6828 17.9346C22.6172 18.0003 22.5351 18.0331 22.4366 18.0331H19.6213V19.847H22.1493C22.2478 19.847 22.3299 19.8826 22.3956 19.9537C22.4667 20.0194 22.5023 20.1014 22.5023 20.1999C22.5023 20.2984 22.4667 20.3805 22.3956 20.4462C22.3299 20.5118 22.2478 20.5447 22.1493 20.5447H19.6213V22.7361C19.6213 22.8401 19.583 22.9277 19.5064 22.9988C19.4353 23.0699 19.3477 23.1055 19.2438 23.1055Z" fill="white"/>
<path d="M6.15359 22.9988L6.30052 22.8519L6.15359 22.9988ZM6.15359 17.4503L6.30062 17.5974L6.30586 17.5917L6.15359 17.4503ZM9.55981 17.5981L9.6576 17.4147L9.55981 17.5981ZM10.2657 18.2711L10.0813 18.367L10.2657 18.2711ZM10.2657 20.044L10.0813 19.9481L10.0813 19.9481L10.2657 20.044ZM9.55981 20.717L9.6576 20.9004L9.55981 20.717ZM6.79379 20.9797V20.7719H6.586V20.9797H6.79379ZM6.67889 22.9988L6.5374 22.8464L6.53195 22.8519L6.67889 22.9988ZM9.38745 19.9537L9.24605 19.8014L9.24424 19.8031L9.38745 19.9537ZM9.38745 18.3614L9.24423 18.512L9.24606 18.5137L9.38745 18.3614ZM6.79379 18.0413V17.8335H6.586V18.0413H6.79379ZM6.79379 20.2738H6.586V20.4816H6.79379V20.2738ZM6.41624 22.8977C6.36532 22.8977 6.33125 22.8826 6.30052 22.8519L6.00666 23.1457C6.11819 23.2573 6.25922 23.3133 6.41624 23.3133V22.8977ZM6.30052 22.8519C6.26979 22.8211 6.25468 22.7871 6.25468 22.7361H5.83909C5.83909 22.8932 5.89512 23.0342 6.00666 23.1457L6.30052 22.8519ZM6.25468 22.7361V17.713H5.83909V22.7361H6.25468ZM6.25468 17.713C6.25468 17.6621 6.26979 17.628 6.30052 17.5973L6.00666 17.3034C5.89512 17.4149 5.83909 17.556 5.83909 17.713H6.25468ZM6.30586 17.5917C6.33792 17.5572 6.37041 17.5432 6.41624 17.5432V17.1276C6.25413 17.1276 6.11152 17.1903 6.00132 17.3089L6.30586 17.5917ZM6.41624 17.5432H8.28761V17.1276H6.41624V17.5432ZM8.28761 17.5432C8.78612 17.5432 9.17338 17.6275 9.46203 17.7814L9.6576 17.4147C9.28963 17.2185 8.82875 17.1276 8.28761 17.1276V17.5432ZM9.46203 17.7814C9.76109 17.9409 9.96212 18.1377 10.0813 18.367L10.45 18.1752C10.2847 17.8573 10.0152 17.6054 9.6576 17.4147L9.46203 17.7814ZM10.0813 18.367C10.2077 18.6101 10.2713 18.8725 10.2713 19.1576H10.6869C10.6869 18.8078 10.6082 18.4793 10.45 18.1752L10.0813 18.367ZM10.2713 19.1576C10.2713 19.4426 10.2077 19.705 10.0813 19.9481L10.45 20.1399C10.6082 19.8358 10.6869 19.5073 10.6869 19.1576H10.2713ZM10.0813 19.9481C9.96212 20.1774 9.76109 20.3742 9.46203 20.5337L9.6576 20.9004C10.0152 20.7097 10.2847 20.4578 10.45 20.1399L10.0813 19.9481ZM9.46203 20.5337C9.17338 20.6876 8.78612 20.7719 8.28761 20.7719V21.1875C8.82875 21.1875 9.28963 21.0966 9.6576 20.9004L9.46203 20.5337ZM8.28761 20.7719H6.79379V21.1875H8.28761V20.7719ZM6.586 20.9797V22.7361H7.00159V20.9797H6.586ZM6.586 22.7361C6.586 22.782 6.57202 22.8145 6.53749 22.8465L6.82028 23.1511C6.93896 23.0409 7.00159 22.8983 7.00159 22.7361H6.586ZM6.53195 22.8519C6.50122 22.8826 6.46715 22.8977 6.41624 22.8977V23.3133C6.57325 23.3133 6.71428 23.2573 6.82582 23.1457L6.53195 22.8519ZM8.21374 20.4816C8.78641 20.4816 9.24662 20.3745 9.53066 20.1043L9.24424 19.8031C9.07959 19.9598 8.75732 20.066 8.21374 20.066V20.4816ZM9.52884 20.106C9.80157 19.8527 9.93997 19.5319 9.93997 19.1576H9.52439C9.52439 19.4179 9.43296 19.6279 9.24606 19.8014L9.52884 20.106ZM9.93997 19.1576C9.93997 18.7832 9.80157 18.4624 9.52884 18.2091L9.24606 18.5137C9.43296 18.6872 9.52439 18.8972 9.52439 19.1576H9.93997ZM9.53066 18.2108C9.24662 17.9406 8.78641 17.8335 8.21374 17.8335V18.2491C8.75732 18.2491 9.07959 18.3553 9.24424 18.512L9.53066 18.2108ZM8.21374 17.8335H6.79379V18.2491H8.21374V17.8335ZM6.586 18.0413V20.2738H7.00159V18.0413H6.586ZM6.79379 20.4816H8.21374V20.066H6.79379V20.4816ZM12.2427 22.9578L12.3897 22.8108L12.2427 22.9578ZM12.2427 17.4503L12.3898 17.5974L12.395 17.5917L12.2427 17.4503ZM15.7392 17.754L15.6265 17.9286L15.6291 17.9302L15.7392 17.754ZM16.7242 18.821L16.5383 18.914L16.7242 18.821ZM16.7242 21.5788L16.5383 21.4859V21.4859L16.7242 21.5788ZM15.7392 22.6541L15.8504 22.8296L15.8509 22.8293L15.7392 22.6541ZM15.2468 22.0959L15.3444 22.2794L15.3467 22.2781L15.2468 22.0959ZM16.0347 21.3326L16.2148 21.4364L16.2155 21.4351L16.0347 21.3326ZM16.0347 19.0755L15.8539 19.1779L15.8547 19.1792L16.0347 19.0755ZM15.2468 18.3122L15.1469 18.4944L15.1491 18.4956L15.2468 18.3122ZM12.8829 18.0331V17.8253H12.6751V18.0331H12.8829ZM12.8829 22.3668H12.6751V22.5746H12.8829V22.3668ZM12.5054 22.8567C12.4545 22.8567 12.4204 22.8416 12.3897 22.8108L12.0958 23.1047C12.2073 23.2162 12.3484 23.2722 12.5054 23.2722V22.8567ZM12.3897 22.8108C12.3589 22.7801 12.3438 22.746 12.3438 22.6951H11.9282C11.9282 22.8521 11.9843 22.9931 12.0958 23.1047L12.3897 22.8108ZM12.3438 22.6951V17.713H11.9282V22.6951H12.3438ZM12.3438 17.713C12.3438 17.6621 12.3589 17.628 12.3897 17.5973L12.0958 17.3034C11.9843 17.4149 11.9282 17.556 11.9282 17.713H12.3438ZM12.395 17.5917C12.4271 17.5572 12.4596 17.5432 12.5054 17.5432V17.1276C12.3433 17.1276 12.2007 17.1903 12.0905 17.3089L12.395 17.5917ZM12.5054 17.5432H14.1551V17.1276H12.5054V17.5432ZM14.1551 17.5432C14.7475 17.5432 15.2344 17.6754 15.6265 17.9286L15.8519 17.5794C15.3795 17.2745 14.8104 17.1276 14.1551 17.1276V17.5432ZM15.6291 17.9302C16.0363 18.1847 16.3375 18.5123 16.5383 18.914L16.91 18.7281C16.6731 18.2543 16.3177 17.8705 15.8494 17.5778L15.6291 17.9302ZM16.5383 18.914C16.743 19.3233 16.8447 19.7512 16.8447 20.1999H17.2603C17.2603 19.6856 17.1431 19.1942 16.91 18.7281L16.5383 18.914ZM16.8447 20.1999C16.8447 20.6487 16.743 21.0765 16.5383 21.4859L16.91 21.6718C17.1431 21.2057 17.2603 20.7143 17.2603 20.1999H16.8447ZM16.5383 21.4859C16.3373 21.888 16.0356 22.2187 15.6275 22.4788L15.8509 22.8293C16.3184 22.5313 16.6733 22.1452 16.91 21.6718L16.5383 21.4859ZM15.6281 22.4785C15.2357 22.7268 14.7483 22.8567 14.1551 22.8567V23.2722C14.8096 23.2722 15.3782 23.1285 15.8504 22.8296L15.6281 22.4785ZM14.1551 22.8567H12.5054V23.2722H14.1551V22.8567ZM14.0649 22.5746C14.5419 22.5746 14.9704 22.4784 15.3444 22.2794L15.1491 21.9125C14.8446 22.0746 14.4852 22.159 14.0649 22.159V22.5746ZM15.3467 22.2781C15.718 22.0745 16.009 21.7935 16.2148 21.4364L15.8547 21.2289C15.6884 21.5174 15.4541 21.7453 15.1469 21.9137L15.3467 22.2781ZM16.2155 21.4351C16.4215 21.0716 16.5216 20.6579 16.5216 20.1999H16.106C16.106 20.5956 16.0201 20.937 15.8539 21.2302L16.2155 21.4351ZM16.5216 20.1999C16.5216 19.7421 16.4215 19.3305 16.2148 18.9717L15.8547 19.1792C16.02 19.4662 16.106 19.8042 16.106 20.1999H16.5216ZM16.2155 18.973C16.0096 18.6097 15.7178 18.3275 15.3444 18.1287L15.1491 18.4956C15.4542 18.658 15.6877 18.8846 15.8539 19.1779L16.2155 18.973ZM15.3467 18.13C14.9722 17.9246 14.5429 17.8253 14.0649 17.8253V18.2409C14.4842 18.2409 14.8428 18.3276 15.1469 18.4943L15.3467 18.13ZM14.0649 17.8253H12.8829V18.2409H14.0649V17.8253ZM12.6751 18.0331V22.3668H13.0907V18.0331H12.6751ZM12.8829 22.5746H14.0649V22.159H12.8829V22.5746ZM18.9811 22.9988L19.1281 22.8519L18.9811 22.9988ZM18.9811 17.4503L19.1282 17.5974L19.1334 17.5917L18.9811 17.4503ZM22.6828 17.4421L22.5301 17.5831L22.5358 17.5892L22.5419 17.5948L22.6828 17.4421ZM22.6828 17.9346L22.5418 17.7818L22.5359 17.7877L22.6828 17.9346ZM19.6213 18.0331V17.8253H19.4135V18.0331H19.6213ZM19.6213 19.847H19.4135V20.0548H19.6213V19.847ZM22.3956 19.9537L22.2429 20.0946L22.2485 20.1008L22.2546 20.1064L22.3956 19.9537ZM22.3956 20.4462L22.2545 20.2934L22.2486 20.2992L22.3956 20.4462ZM19.6213 20.5447V20.3369H19.4135V20.5447H19.6213ZM19.5064 22.9988L19.3649 22.8464L19.3595 22.8519L19.5064 22.9988ZM19.2438 22.8977C19.1929 22.8977 19.1588 22.8826 19.1281 22.8519L18.8342 23.1457C18.9457 23.2573 19.0868 23.3133 19.2438 23.3133V22.8977ZM19.1281 22.8519C19.0973 22.8211 19.0822 22.7871 19.0822 22.7361H18.6666C18.6666 22.8932 18.7227 23.0342 18.8342 23.1457L19.1281 22.8519ZM19.0822 22.7361V17.713H18.6666V22.7361H19.0822ZM19.0822 17.713C19.0822 17.6621 19.0973 17.628 19.1281 17.5973L18.8342 17.3034C18.7227 17.4149 18.6666 17.556 18.6666 17.713H19.0822ZM19.1334 17.5917C19.1655 17.5572 19.198 17.5432 19.2438 17.5432V17.1276C19.0817 17.1276 18.9391 17.1903 18.8289 17.3089L19.1334 17.5917ZM19.2438 17.5432H22.4366V17.1276H19.2438V17.5432ZM22.4366 17.5432C22.4782 17.5432 22.5046 17.5554 22.5301 17.5831L22.8355 17.3012C22.7297 17.1866 22.5919 17.1276 22.4366 17.1276V17.5432ZM22.5419 17.5948C22.5696 17.6204 22.5817 17.6467 22.5817 17.6884H22.9973C22.9973 17.533 22.9384 17.3952 22.8238 17.2894L22.5419 17.5948ZM22.5817 17.6884C22.5817 17.73 22.5696 17.7564 22.5419 17.7819L22.8238 18.0873C22.9384 17.9815 22.9973 17.8437 22.9973 17.6884H22.5817ZM22.5359 17.7877C22.5118 17.8118 22.4837 17.8253 22.4366 17.8253V18.2409C22.5865 18.2409 22.7226 18.1887 22.8298 18.0815L22.5359 17.7877ZM22.4366 17.8253H19.6213V18.2409H22.4366V17.8253ZM19.4135 18.0331V19.847H19.8291V18.0331H19.4135ZM19.6213 20.0548H22.1493V19.6392H19.6213V20.0548ZM22.1493 20.0548C22.191 20.0548 22.2173 20.067 22.2429 20.0946L22.5482 19.8128C22.4425 19.6982 22.3047 19.6392 22.1493 19.6392V20.0548ZM22.2546 20.1064C22.2823 20.1319 22.2945 20.1583 22.2945 20.1999H22.7101C22.7101 20.0446 22.6511 19.9068 22.5365 19.801L22.2546 20.1064ZM22.2945 20.1999C22.2945 20.2416 22.2823 20.2679 22.2546 20.2935L22.5365 20.5989C22.6511 20.4931 22.7101 20.3553 22.7101 20.1999H22.2945ZM22.2486 20.2992C22.2245 20.3234 22.1964 20.3369 22.1493 20.3369V20.7525C22.2992 20.7525 22.4353 20.7003 22.5425 20.5931L22.2486 20.2992ZM22.1493 20.3369H19.6213V20.7525H22.1493V20.3369ZM19.4135 20.5447V22.7361H19.8291V20.5447H19.4135ZM19.4135 22.7361C19.4135 22.782 19.3996 22.8145 19.365 22.8465L19.6478 23.1511C19.7665 23.0409 19.8291 22.8983 19.8291 22.7361H19.4135ZM19.3595 22.8519C19.3288 22.8826 19.2947 22.8977 19.2438 22.8977V23.3133C19.4008 23.3133 19.5418 23.2573 19.6534 23.1457L19.3595 22.8519Z" fill="white"/>
<path d="M6.41624 23.1055C6.31227 23.1055 6.22472 23.0699 6.15359 22.9988C6.08245 22.9277 6.04689 22.8401 6.04689 22.7361V17.713C6.04689 17.609 6.08245 17.5215 6.15359 17.4503C6.22472 17.3737 6.31227 17.3354 6.41624 17.3354H8.28761C8.80744 17.3354 9.2315 17.423 9.55982 17.5981C9.88813 17.7732 10.1234 17.9975 10.2657 18.2711C10.408 18.5447 10.4791 18.8402 10.4791 19.1576C10.4791 19.4749 10.408 19.7704 10.2657 20.044C10.1234 20.3176 9.88813 20.5419 9.55982 20.717C9.2315 20.8921 8.80744 20.9797 8.28761 20.9797H6.79379V22.7361C6.79379 22.8401 6.75549 22.9277 6.67889 22.9988C6.60775 23.0699 6.5202 23.1055 6.41624 23.1055ZM8.21374 20.2738C8.77187 20.2738 9.16311 20.1671 9.38745 19.9537C9.61727 19.7403 9.73218 19.4749 9.73218 19.1576C9.73218 18.8402 9.61727 18.5748 9.38745 18.3614C9.16311 18.148 8.77187 18.0413 8.21374 18.0413H6.79379V20.2738H8.21374ZM12.5054 23.0645C12.4014 23.0645 12.3139 23.0289 12.2427 22.9578C12.1716 22.8866 12.136 22.7991 12.136 22.6951V17.713C12.136 17.609 12.1716 17.5215 12.2427 17.4503C12.3139 17.3737 12.4014 17.3354 12.5054 17.3354H14.1551C14.7789 17.3354 15.307 17.475 15.7392 17.754C16.177 18.0276 16.5053 18.3833 16.7242 18.821C16.9431 19.2588 17.0525 19.7184 17.0525 20.1999C17.0525 20.6815 16.9431 21.1411 16.7242 21.5788C16.5053 22.0166 16.177 22.375 15.7392 22.6541C15.307 22.9277 14.7789 23.0645 14.1551 23.0645H12.5054ZM14.0649 22.3668C14.5135 22.3668 14.9075 22.2765 15.2468 22.0959C15.586 21.9099 15.8487 21.6555 16.0347 21.3326C16.2208 21.0043 16.3138 20.6267 16.3138 20.1999C16.3138 19.7731 16.2208 19.3983 16.0347 19.0755C15.8487 18.7472 15.586 18.4927 15.2468 18.3122C14.9075 18.1261 14.5135 18.0331 14.0649 18.0331H12.8829V22.3668H14.0649ZM19.2438 23.1055C19.1398 23.1055 19.0523 23.0699 18.9811 22.9988C18.91 22.9277 18.8744 22.8401 18.8744 22.7361V17.713C18.8744 17.609 18.91 17.5215 18.9811 17.4503C19.0523 17.3737 19.1398 17.3354 19.2438 17.3354H22.4366C22.5351 17.3354 22.6172 17.371 22.6828 17.4421C22.754 17.5078 22.7895 17.5899 22.7895 17.6884C22.7895 17.7869 22.754 17.8689 22.6828 17.9346C22.6172 18.0003 22.5351 18.0331 22.4366 18.0331H19.6213V19.847H22.1493C22.2478 19.847 22.3299 19.8826 22.3956 19.9537C22.4667 20.0194 22.5023 20.1014 22.5023 20.1999C22.5023 20.2984 22.4667 20.3805 22.3956 20.4462C22.3299 20.5118 22.2478 20.5447 22.1493 20.5447H19.6213V22.7361C19.6213 22.8401 19.583 22.9277 19.5064 22.9988C19.4353 23.0699 19.3477 23.1055 19.2438 23.1055Z" fill="white"/>
<mask id="mask1_155_1801" style="mask-type:alpha" maskUnits="userSpaceOnUse" x="0" y="0" width="29" height="32">
<path d="M25.736 31.9999H2.26544C1.01468 31.9999 0.000732422 30.9766 0.000732422 29.7142V2.28571C0.000732422 1.02335 1.01468 0 2.26544 0H17.5007L28.0007 10.5974V29.7142C28.0007 30.9766 26.9868 31.9999 25.736 31.9999Z" fill="url(#paint2_linear_155_1801)"/>
</mask>
<g mask="url(#mask1_155_1801)">
<ellipse opacity="0.08" cx="-2.83005" cy="-0.675266" rx="23.0074" ry="22.2857" fill="url(#paint3_linear_155_1801)"/>
<ellipse opacity="0.08" cx="-2.83022" cy="-0.675415" rx="14.4632" ry="13.974" fill="url(#paint4_linear_155_1801)"/>
</g>
<g filter="url(#filter0_d_155_1801)">
<path d="M28.0002 10.5974H19.786C18.5236 10.5974 17.5002 9.57404 17.5002 8.31167V0L28.0002 10.5974Z" fill="url(#paint5_linear_155_1801)"/>
</g>
</g>
<defs>
<filter id="filter0_d_155_1801" x="15.1106" y="-2.4935" width="15.6948" height="15.7925" filterUnits="userSpaceOnUse" color-interpolation-filters="sRGB">
<feFlood flood-opacity="0" result="BackgroundImageFix"/>
<feColorMatrix in="SourceAlpha" type="matrix" values="0 0 0 0 0 0 0 0 0 0 0 0 0 0 0 0 0 0 127 0" result="hardAlpha"/>
<feOffset dx="0.207792" dy="0.103896"/>
<feGaussianBlur stdDeviation="1.2987"/>
<feColorMatrix type="matrix" values="0 0 0 0 0 0 0 0 0 0 0 0 0 0 0 0 0 0 0.33 0"/>
<feBlend mode="normal" in2="BackgroundImageFix" result="effect1_dropShadow_155_1801"/>
<feBlend mode="normal" in="SourceGraphic" in2="effect1_dropShadow_155_1801" result="shape"/>
</filter>
<linearGradient id="paint0_linear_155_1801" x1="14.0002" y1="0" x2="14.0002" y2="31.9999" gradientUnits="userSpaceOnUse">
<stop stop-color="#FF7979"/>
<stop offset="1" stop-color="#E85555"/>
</linearGradient>
<linearGradient id="paint1_linear_155_1801" x1="14.0005" y1="0" x2="14.0005" y2="31.9999" gradientUnits="userSpaceOnUse">
<stop stop-color="#FF7981"/>
<stop offset="1" stop-color="#E85567"/>
</linearGradient>
<linearGradient id="paint2_linear_155_1801" x1="14.0007" y1="0" x2="14.0007" y2="31.9999" gradientUnits="userSpaceOnUse">
<stop stop-color="#FF7981"/>
<stop offset="1" stop-color="#E85567"/>
</linearGradient>
<linearGradient id="paint3_linear_155_1801" x1="-1.15955" y1="0.0905641" x2="5.93132" y2="18.7369" gradientUnits="userSpaceOnUse">
<stop stop-color="white" stop-opacity="0"/>
<stop offset="1" stop-color="white"/>
</linearGradient>
<linearGradient id="paint4_linear_155_1801" x1="-1.78009" y1="-0.195209" x2="2.65772" y2="11.5042" gradientUnits="userSpaceOnUse">
<stop stop-color="white" stop-opacity="0"/>
<stop offset="1" stop-color="white"/>
</linearGradient>
<linearGradient id="paint5_linear_155_1801" x1="22.7502" y1="0" x2="22.7502" y2="10.5974" gradientUnits="userSpaceOnUse">
<stop stop-color="#D03954"/>
<stop offset="1" stop-color="#C02A3C"/>
</linearGradient>
</defs>
</svg>
