<svg width="29" height="32" viewBox="0 0 29 32" fill="none" xmlns="http://www.w3.org/2000/svg">
<mask id="mask0_155_1817" style="mask-type:alpha" maskUnits="userSpaceOnUse" x="-1" y="0" width="30" height="32">
<path d="M25.9737 31.9999H2.28547C1.0231 31.9999 -0.000244141 30.9766 -0.000244141 29.7142V2.28571C-0.000244141 1.02335 1.0231 0 2.28547 0H17.6621L28.2594 10.5974V29.7142C28.2594 30.9766 27.2361 31.9999 25.9737 31.9999Z" fill="url(#paint0_linear_155_1817)"/>
</mask>
<g mask="url(#mask0_155_1817)">
<path d="M25.9735 31.9999H2.28522C1.02286 31.9999 -0.000488281 30.9766 -0.000488281 29.7142V2.28571C-0.000488281 1.02335 1.02286 0 2.28522 0H17.6618L28.2592 10.5974V29.7142C28.2592 30.9766 27.2358 31.9999 25.9735 31.9999Z" fill="url(#paint1_linear_155_1817)"/>
<g opacity="0.82" filter="url(#filter0_f_155_1817)">
<rect x="4.98657" y="15.4805" width="18.4935" height="8.72725" fill="#0F7D56" fill-opacity="0.27" style="mix-blend-mode:darken"/>
</g>
<path opacity="0.12" fill-rule="evenodd" clip-rule="evenodd" d="M10.1811 16.9349V13.195H4.88249V16.9349L10.1811 16.9349ZM3.63574 18.1816V16.9349V12.7794C3.63574 12.3204 4.00787 11.9482 4.46691 11.9482H10.1811H11.4278H16.7268H17.9735H23.6877C24.1467 11.9482 24.5188 12.3204 24.5188 12.7794V27.3248C24.5188 27.7839 24.1467 28.156 23.6877 28.156H4.46691C4.00787 28.156 3.63574 27.7839 3.63574 27.3248V23.1689V21.9222V18.1816ZM4.88249 21.9222V18.1816L10.1811 18.1816V21.9222L4.88249 21.9222ZM4.88249 23.1689V26.9093H10.1811V23.1689L4.88249 23.1689ZM11.4278 26.9093H16.7268V23.1689H11.4278V26.9093ZM17.9735 26.9093H23.2721V23.1689L17.9735 23.1689V26.9093ZM23.2721 21.9222V18.1816L17.9735 18.1816V21.9222L23.2721 21.9222ZM23.2721 16.9349V13.195H17.9735V16.9349L23.2721 16.9349ZM16.7268 13.195H11.4278V16.9349L16.7268 16.9349V13.195ZM16.7268 18.1816V21.9222H11.4278V18.1816L16.7268 18.1816Z" fill="white"/>
<path d="M6.6275 23.1055C6.53448 23.1055 6.4524 23.0727 6.38127 23.007C6.3156 22.9359 6.28277 22.8538 6.28277 22.7608C6.28277 22.6732 6.3074 22.5966 6.35664 22.5309L8.25264 20.1999L6.37306 17.8853C6.32381 17.8197 6.29919 17.7431 6.29919 17.6555C6.29919 17.5516 6.33202 17.4667 6.39768 17.4011C6.46882 17.33 6.55637 17.2944 6.66033 17.2944C6.72052 17.2944 6.77798 17.3081 6.83269 17.3354C6.88741 17.3628 6.93119 17.3984 6.96402 17.4421L8.69586 19.6418L10.4277 17.4257C10.4879 17.3382 10.5782 17.2944 10.6986 17.2944C10.7971 17.2944 10.8819 17.33 10.953 17.4011C11.0241 17.4667 11.0597 17.5488 11.0597 17.6473C11.0597 17.7239 11.0378 17.7923 10.994 17.8525L9.09804 20.1917L10.994 22.5227C11.0433 22.5775 11.0679 22.6486 11.0679 22.7361C11.0679 22.8401 11.0323 22.9277 10.9612 22.9988C10.8955 23.0699 10.808 23.1055 10.6986 23.1055C10.5782 23.1055 10.4797 23.0535 10.4031 22.9495L8.64661 20.7417L6.91477 22.9578C6.83269 23.0562 6.73694 23.1055 6.6275 23.1055ZM13.316 23.0645C13.1737 23.0645 13.0506 23.0152 12.9467 22.9167C12.8482 22.8127 12.7989 22.6896 12.7989 22.5474V17.6719C12.7989 17.568 12.8345 17.4804 12.9056 17.4093C12.9767 17.3327 13.0643 17.2944 13.1683 17.2944C13.2722 17.2944 13.3598 17.3327 13.4309 17.4093C13.5075 17.4804 13.5458 17.568 13.5458 17.6719V22.3175H16.2298C16.3337 22.3175 16.4213 22.3558 16.4924 22.4325C16.569 22.5036 16.6073 22.5911 16.6073 22.6951C16.6073 22.7991 16.569 22.8866 16.4924 22.9578C16.4213 23.0289 16.3337 23.0645 16.2298 23.0645H13.316ZM19.9083 23.1465C19.2133 23.1465 18.5622 23.0152 17.9548 22.7526C17.8891 22.7252 17.8344 22.6814 17.7907 22.6212C17.7469 22.5556 17.725 22.4872 17.725 22.416C17.725 22.323 17.7551 22.2437 17.8153 22.178C17.8809 22.1069 17.963 22.0713 18.0615 22.0713C18.1162 22.0713 18.1682 22.0823 18.2175 22.1041C18.7209 22.3285 19.2598 22.4407 19.8344 22.4407C20.792 22.4407 21.2707 22.126 21.2707 21.4968C21.2707 21.3326 21.2078 21.1958 21.082 21.0864C20.9616 20.9769 20.8111 20.8921 20.6305 20.8319C20.45 20.7663 20.1928 20.6897 19.859 20.6021C19.4158 20.4872 19.0574 20.3778 18.7838 20.2738C18.5102 20.1644 18.2749 20.003 18.0779 19.7896C17.8809 19.5761 17.7824 19.2916 17.7824 18.9359C17.7824 18.624 17.8645 18.3422 18.0287 18.0905C18.1928 17.8334 18.4336 17.6309 18.751 17.4832C19.0738 17.33 19.4596 17.2533 19.9083 17.2533C20.5102 17.2533 21.0546 17.3436 21.5416 17.5242C21.6948 17.5789 21.7714 17.6884 21.7714 17.8525C21.7714 17.9401 21.7413 18.0194 21.6811 18.0905C21.6209 18.1617 21.5416 18.1972 21.4431 18.1972C21.4103 18.1972 21.3665 18.1863 21.3118 18.1644C20.885 18.0167 20.4445 17.9428 19.9903 17.9428C19.5581 17.9428 19.2051 18.0249 18.9315 18.189C18.6634 18.3532 18.5294 18.583 18.5294 18.8785C18.5294 19.0755 18.5923 19.2369 18.7181 19.3627C18.8495 19.4831 19.0109 19.5789 19.2024 19.65C19.3994 19.7157 19.6648 19.7868 19.9985 19.8634C20.4308 19.9674 20.7783 20.0714 21.0409 20.1753C21.3091 20.2793 21.5361 20.4407 21.7222 20.6596C21.9137 20.8784 22.0094 21.1739 22.0094 21.546C22.0094 21.8524 21.9219 22.1288 21.7468 22.375C21.5717 22.6158 21.3255 22.8045 21.0081 22.9413C20.6907 23.0781 20.3241 23.1465 19.9083 23.1465Z" fill="white"/>
<path d="M6.38127 23.007L6.22858 23.1479L6.23422 23.154L6.24033 23.1597L6.38127 23.007ZM6.35664 22.5309L6.19532 22.3997L6.19041 22.4063L6.35664 22.5309ZM8.25264 20.1999L8.41384 20.3311L8.5204 20.2L8.41394 20.069L8.25264 20.1999ZM6.37306 17.8853L6.2067 18.0101L6.21175 18.0163L6.37306 17.8853ZM6.39768 17.4011L6.25075 17.2542L6.25075 17.2542L6.39768 17.4011ZM6.83269 17.3354L6.92562 17.1496H6.92562L6.83269 17.3354ZM6.96402 17.4421L6.79774 17.5668L6.80075 17.5707L6.96402 17.4421ZM8.69586 19.6418L8.5326 19.7703L8.69647 19.9785L8.85959 19.7698L8.69586 19.6418ZM10.4277 17.4257L10.5917 17.5539L10.5989 17.5434L10.4277 17.4257ZM10.953 17.4011L10.8059 17.5481L10.8121 17.5538L10.953 17.4011ZM10.994 17.8525L11.1557 17.9835L11.1621 17.9747L10.994 17.8525ZM9.09804 20.1917L8.93661 20.0609L8.83038 20.192L8.93684 20.3228L9.09804 20.1917ZM10.994 22.5227L10.8326 22.654L10.8396 22.6617L10.994 22.5227ZM10.9612 22.9988L10.8142 22.8517L10.8085 22.8579L10.9612 22.9988ZM10.4031 22.9495L10.5705 22.8262L10.5657 22.8202L10.4031 22.9495ZM8.64661 20.7417L8.80922 20.6123L8.64516 20.4061L8.48289 20.6137L8.64661 20.7417ZM6.91477 22.9578L7.07448 23.0908L7.0785 23.0857L6.91477 22.9578ZM6.6275 22.8977C6.58901 22.8977 6.55668 22.8861 6.52221 22.8543L6.24033 23.1597C6.34812 23.2592 6.47995 23.3133 6.6275 23.3133V22.8977ZM6.53395 22.8661C6.50213 22.8316 6.49056 22.7993 6.49056 22.7608H6.07498C6.07498 22.9083 6.12908 23.0401 6.22858 23.1479L6.53395 22.8661ZM6.49056 22.7608C6.49056 22.715 6.50246 22.6828 6.52288 22.6556L6.19041 22.4063C6.11233 22.5104 6.07498 22.6314 6.07498 22.7608H6.49056ZM6.51784 22.6621L8.41384 20.3311L8.09144 20.0688L6.19544 22.3998L6.51784 22.6621ZM8.41394 20.069L6.53436 17.7544L6.21175 18.0163L8.09133 20.3309L8.41394 20.069ZM6.53929 17.7607C6.51888 17.7334 6.50698 17.7013 6.50698 17.6555H6.0914C6.0914 17.7848 6.12875 17.9059 6.20683 18.01L6.53929 17.7607ZM6.50698 17.6555C6.50698 17.5995 6.52273 17.5699 6.54461 17.548L6.25075 17.2542C6.14131 17.3636 6.0914 17.5037 6.0914 17.6555H6.50698ZM6.54461 17.548C6.57534 17.5173 6.60941 17.5022 6.66033 17.5022V17.0866C6.50332 17.0866 6.36229 17.1426 6.25075 17.2542L6.54461 17.548ZM6.66033 17.5022C6.68772 17.5022 6.71341 17.5081 6.73977 17.5213L6.92562 17.1496C6.84254 17.108 6.75332 17.0866 6.66033 17.0866V17.5022ZM6.73977 17.5213C6.76908 17.5359 6.78649 17.5517 6.79779 17.5668L7.13025 17.3175C7.07588 17.245 7.00575 17.1896 6.92562 17.1496L6.73977 17.5213ZM6.80075 17.5707L8.5326 19.7703L8.85912 19.5133L7.12728 17.3136L6.80075 17.5707ZM8.85959 19.7698L10.5914 17.5537L10.264 17.2978L8.53213 19.5139L8.85959 19.7698ZM10.5989 17.5434C10.6147 17.5205 10.636 17.5022 10.6986 17.5022V17.0866C10.5203 17.0866 10.3611 17.1559 10.2565 17.308L10.5989 17.5434ZM10.6986 17.5022C10.7406 17.5022 10.773 17.5149 10.8061 17.548L11.0999 17.2542C10.9908 17.145 10.8535 17.0866 10.6986 17.0866V17.5022ZM10.8121 17.5538C10.8397 17.5793 10.8519 17.6057 10.8519 17.6473H11.2675C11.2675 17.492 11.2085 17.3542 11.0939 17.2484L10.8121 17.5538ZM10.8519 17.6473C10.8519 17.6814 10.8431 17.7067 10.826 17.7303L11.1621 17.9747C11.2325 17.8779 11.2675 17.7665 11.2675 17.6473H10.8519ZM10.8326 17.7217L8.93661 20.0609L9.25947 20.3226L11.1555 17.9834L10.8326 17.7217ZM8.93684 20.3228L10.8328 22.6539L11.1552 22.3916L9.25924 20.0606L8.93684 20.3228ZM10.8396 22.6617C10.8482 22.6713 10.8601 22.6897 10.8601 22.7361H11.2757C11.2757 22.6075 11.2384 22.4836 11.1485 22.3837L10.8396 22.6617ZM10.8601 22.7361C10.8601 22.7871 10.845 22.8211 10.8143 22.8519L11.1081 23.1457C11.2197 23.0342 11.2757 22.8932 11.2757 22.7361H10.8601ZM10.8085 22.8579C10.7875 22.8806 10.7584 22.8977 10.6986 22.8977V23.3133C10.8576 23.3133 11.0036 23.2593 11.1139 23.1397L10.8085 22.8579ZM10.6986 22.8977C10.6496 22.8977 10.6111 22.8816 10.5704 22.8263L10.2358 23.0728C10.3482 23.2254 10.5067 23.3133 10.6986 23.3133V22.8977ZM10.5657 22.8202L8.80922 20.6123L8.484 20.871L10.2405 23.0789L10.5657 22.8202ZM8.48289 20.6137L6.75105 22.8298L7.0785 23.0857L8.81034 20.8696L8.48289 20.6137ZM6.75514 22.8247C6.70502 22.8849 6.6644 22.8977 6.6275 22.8977V23.3133C6.80947 23.3133 6.96037 23.2276 7.0744 23.0908L6.75514 22.8247ZM12.9467 22.9167L12.7956 23.0598L12.8037 23.0676L12.9467 22.9167ZM12.9056 17.4093L13.0526 17.5563L13.0579 17.5507L12.9056 17.4093ZM13.4309 17.4093L13.2786 17.5507L13.2839 17.5563L13.2895 17.5616L13.4309 17.4093ZM13.5458 22.3175H13.338V22.5253H13.5458V22.3175ZM16.4924 22.4325L16.3401 22.5738L16.3454 22.5795L16.351 22.5847L16.4924 22.4325ZM16.4924 22.9578L16.3509 22.8054L16.3455 22.8108L16.4924 22.9578ZM13.316 22.8567C13.2273 22.8567 13.1552 22.8281 13.0896 22.7659L12.8037 23.0676C12.946 23.2023 13.1202 23.2722 13.316 23.2722V22.8567ZM13.0975 22.7738C13.0353 22.7082 13.0067 22.6361 13.0067 22.5474H12.5911C12.5911 22.7432 12.661 22.9173 12.7958 23.0596L13.0975 22.7738ZM13.0067 22.5474V17.6719H12.5911V22.5474H13.0067ZM13.0067 17.6719C13.0067 17.621 13.0218 17.587 13.0525 17.5562L12.7587 17.2624C12.6471 17.3739 12.5911 17.5149 12.5911 17.6719H13.0067ZM13.0579 17.5507C13.0899 17.5162 13.1224 17.5022 13.1683 17.5022V17.0866C13.0062 17.0866 12.8635 17.1492 12.7533 17.2679L13.0579 17.5507ZM13.1683 17.5022C13.2141 17.5022 13.2466 17.5162 13.2786 17.5507L13.5832 17.2679C13.473 17.1492 13.3304 17.0866 13.1683 17.0866V17.5022ZM13.2895 17.5616C13.3241 17.5936 13.338 17.6261 13.338 17.6719H13.7536C13.7536 17.5098 13.691 17.3672 13.5723 17.257L13.2895 17.5616ZM13.338 17.6719V22.3175H13.7536V17.6719H13.338ZM13.5458 22.5253H16.2298V22.1098H13.5458V22.5253ZM16.2298 22.5253C16.2756 22.5253 16.3081 22.5393 16.3401 22.5738L16.6447 22.2911C16.5345 22.1724 16.3919 22.1098 16.2298 22.1098V22.5253ZM16.351 22.5847C16.3856 22.6168 16.3995 22.6493 16.3995 22.6951H16.8151C16.8151 22.533 16.7525 22.3904 16.6338 22.2802L16.351 22.5847ZM16.3995 22.6951C16.3995 22.7409 16.3856 22.7734 16.351 22.8055L16.6338 23.11C16.7525 22.9998 16.8151 22.8572 16.8151 22.6951H16.3995ZM16.3455 22.8108C16.3148 22.8416 16.2807 22.8567 16.2298 22.8567V23.2722C16.3868 23.2722 16.5278 23.2162 16.6393 23.1047L16.3455 22.8108ZM16.2298 22.8567H13.316V23.2722H16.2298V22.8567ZM17.9548 22.7526L18.0373 22.5618L18.0347 22.5608L17.9548 22.7526ZM17.7907 22.6212L17.6176 22.7366L17.6226 22.7435L17.7907 22.6212ZM17.8153 22.178L17.6626 22.0371L17.6621 22.0376L17.8153 22.178ZM18.2175 22.1041L18.302 21.9143L18.3018 21.9143L18.2175 22.1041ZM21.082 21.0864L20.9422 21.2402L20.9456 21.2432L21.082 21.0864ZM20.6305 20.8319L20.5595 21.0273L20.5648 21.0291L20.6305 20.8319ZM19.859 20.6021L19.9117 20.4011L19.9112 20.401L19.859 20.6021ZM18.7838 20.2738L18.7066 20.4668L18.71 20.468L18.7838 20.2738ZM18.0779 19.7896L17.9252 19.9305L18.0779 19.7896ZM18.0287 18.0905L18.2027 18.2041L18.2038 18.2023L18.0287 18.0905ZM18.751 17.4832L18.8387 17.6716L18.8401 17.6709L18.751 17.4832ZM21.5416 17.5242L21.4694 17.719L21.4717 17.7199L21.5416 17.5242ZM21.6811 18.0905L21.8398 18.2248L21.8398 18.2248L21.6811 18.0905ZM21.3118 18.1644L21.389 17.9713L21.3798 17.9681L21.3118 18.1644ZM18.9315 18.189L18.8246 18.0108L18.823 18.0118L18.9315 18.189ZM18.7181 19.3627L18.5711 19.5098L18.5777 19.5159L18.7181 19.3627ZM19.2024 19.65L19.13 19.8449L19.1367 19.8471L19.2024 19.65ZM19.9985 19.8634L20.0471 19.6614L20.045 19.6609L19.9985 19.8634ZM21.0409 20.1753L20.9645 20.3685L20.9658 20.3691L21.0409 20.1753ZM21.7222 20.6596L21.5638 20.7942L21.5658 20.7964L21.7222 20.6596ZM21.7468 22.375L21.9149 22.4972L21.9161 22.4954L21.7468 22.375ZM21.0081 22.9413L21.0904 23.1322L21.0081 22.9413ZM19.9083 22.9387C19.2403 22.9387 18.6173 22.8127 18.0373 22.5618L17.8723 22.9433C18.507 23.2178 19.1864 23.3543 19.9083 23.3543V22.9387ZM18.0347 22.5608C18.0059 22.5488 17.9811 22.5299 17.9587 22.499L17.6226 22.7435C17.6877 22.833 17.7724 22.9016 17.8749 22.9444L18.0347 22.5608ZM17.9635 22.506C17.9399 22.4706 17.9328 22.4417 17.9328 22.416H17.5172C17.5172 22.5326 17.5538 22.6406 17.6178 22.7365L17.9635 22.506ZM17.9328 22.416C17.9328 22.3725 17.9451 22.3439 17.9685 22.3184L17.6621 22.0376C17.5651 22.1434 17.5172 22.2736 17.5172 22.416H17.9328ZM17.968 22.319C17.9935 22.2913 18.0199 22.2791 18.0615 22.2791V21.8635C17.9062 21.8635 17.7684 21.9225 17.6626 22.0371L17.968 22.319ZM18.0615 22.2791C18.0876 22.2791 18.1108 22.2841 18.1331 22.294L18.3018 21.9143C18.2256 21.8804 18.1448 21.8635 18.0615 21.8635V22.2791ZM18.1329 22.2939C18.664 22.5307 19.232 22.6485 19.8344 22.6485V22.2329C19.2877 22.2329 18.7777 22.1263 18.302 21.9143L18.1329 22.2939ZM19.8344 22.6485C20.3293 22.6485 20.7366 22.5683 21.0258 22.3783C21.3301 22.1783 21.4785 21.8732 21.4785 21.4968H21.063C21.063 21.7496 20.972 21.9164 20.7975 22.031C20.6079 22.1557 20.297 22.2329 19.8344 22.2329V22.6485ZM21.4785 21.4968C21.4785 21.2714 21.3887 21.0778 21.2183 20.9296L20.9456 21.2432C21.0269 21.3139 21.063 21.3939 21.063 21.4968H21.4785ZM21.2217 20.9326C21.0766 20.8007 20.8996 20.7026 20.6963 20.6348L20.5648 21.0291C20.7226 21.0816 20.8465 21.1532 20.9422 21.2401L21.2217 20.9326ZM20.7016 20.6367C20.512 20.5677 20.2477 20.4892 19.9117 20.4011L19.8063 20.8031C20.1379 20.8901 20.3879 20.9648 20.5595 21.0272L20.7016 20.6367ZM19.9112 20.401C19.4717 20.287 19.1213 20.1798 18.8576 20.0796L18.71 20.468C18.9934 20.5758 19.3599 20.6874 19.8069 20.8033L19.9112 20.401ZM18.861 20.0809C18.6157 19.9828 18.4063 19.8389 18.2306 19.6486L17.9252 19.9305C18.1435 20.167 18.4047 20.346 18.7066 20.4667L18.861 20.0809ZM18.2306 19.6486C18.0766 19.4818 17.9902 19.2517 17.9902 18.9359H17.5747C17.5747 19.3315 17.6853 19.6705 17.9252 19.9305L18.2306 19.6486ZM17.9902 18.9359C17.9902 18.6627 18.0615 18.4207 18.2027 18.2041L17.8546 17.977C17.6676 18.2638 17.5747 18.5854 17.5747 18.9359H17.9902ZM18.2038 18.2023C18.3437 17.9832 18.5517 17.8051 18.8387 17.6715L18.6633 17.2948C18.3155 17.4567 18.042 17.6835 17.8535 17.9787L18.2038 18.2023ZM18.8401 17.6709C19.1289 17.5338 19.4827 17.4611 19.9083 17.4611V17.0456C19.4364 17.0456 19.0187 17.1261 18.6619 17.2954L18.8401 17.6709ZM19.9083 17.4611C20.4894 17.4611 21.0088 17.5483 21.4694 17.719L21.6138 17.3294C21.1004 17.139 20.531 17.0456 19.9083 17.0456V17.4611ZM21.4717 17.7199C21.5167 17.736 21.5351 17.7541 21.5437 17.7665C21.5525 17.779 21.5636 17.8032 21.5636 17.8525H21.9792C21.9792 17.7377 21.9521 17.6251 21.8842 17.5282C21.8162 17.4311 21.7197 17.3672 21.6115 17.3285L21.4717 17.7199ZM21.5636 17.8525C21.5636 17.8876 21.5532 17.9201 21.5225 17.9563L21.8398 18.2248C21.9295 18.1187 21.9792 17.9925 21.9792 17.8525H21.5636ZM21.5225 17.9563C21.5043 17.9778 21.4845 17.9894 21.4431 17.9894V18.405C21.5987 18.405 21.7376 18.3455 21.8398 18.2248L21.5225 17.9563ZM21.4431 17.9894C21.4487 17.9894 21.4471 17.9902 21.4361 17.9874C21.4255 17.9848 21.4101 17.9799 21.389 17.9715L21.2346 18.3573C21.2975 18.3825 21.3706 18.405 21.4431 18.405V17.9894ZM21.3798 17.9681C20.931 17.8127 20.4675 17.735 19.9903 17.735V18.1506C20.4215 18.1506 20.839 18.2206 21.2438 18.3608L21.3798 17.9681ZM19.9903 17.735C19.5333 17.735 19.14 17.8216 18.8246 18.0109L19.0384 18.3672C19.2702 18.2281 19.5828 18.1506 19.9903 18.1506V17.735ZM18.823 18.0118C18.498 18.2108 18.3216 18.5053 18.3216 18.8785H18.7371C18.7371 18.6608 18.8288 18.4956 19.04 18.3662L18.823 18.0118ZM18.3216 18.8785C18.3216 19.1241 18.402 19.3405 18.5712 19.5097L18.8651 19.2158C18.7825 19.1333 18.7371 19.0268 18.7371 18.8785H18.3216ZM18.5777 19.5159C18.7315 19.6569 18.917 19.7657 19.13 19.8448L19.2747 19.4552C19.1047 19.3921 18.9674 19.3094 18.8585 19.2096L18.5777 19.5159ZM19.1367 19.8471C19.3427 19.9158 19.6154 19.9887 19.9521 20.0659L20.045 19.6609C19.7142 19.585 19.456 19.5155 19.2681 19.4529L19.1367 19.8471ZM19.95 20.0655C20.3775 20.1683 20.7145 20.2696 20.9645 20.3685L21.1174 19.9821C20.8421 19.8731 20.4842 19.7665 20.0471 19.6614L19.95 20.0655ZM20.9658 20.3691C21.2017 20.4605 21.4002 20.6016 21.5639 20.7942L21.8805 20.525C21.6721 20.2798 21.4164 20.098 21.1161 19.9816L20.9658 20.3691ZM21.5658 20.7964C21.7158 20.9678 21.8017 21.2098 21.8017 21.546H22.2172C22.2172 21.138 22.1116 20.7891 21.8786 20.5227L21.5658 20.7964ZM21.8017 21.546C21.8017 21.8099 21.7272 22.044 21.5775 22.2546L21.9161 22.4954C22.1166 22.2135 22.2172 21.8949 22.2172 21.546H21.8017ZM21.5788 22.2528C21.4289 22.4588 21.2146 22.6261 20.9259 22.7505L21.0904 23.1322C21.4364 22.983 21.7145 22.7727 21.9148 22.4972L21.5788 22.2528ZM20.9259 22.7505C20.6392 22.8741 20.3015 22.9387 19.9083 22.9387V23.3543C20.3468 23.3543 20.7423 23.2822 21.0904 23.1322L20.9259 22.7505Z" fill="white"/>
<mask id="mask1_155_1817" style="mask-type:alpha" maskUnits="userSpaceOnUse" x="-1" y="0" width="30" height="32">
<path d="M25.9735 31.9999H2.28522C1.02286 31.9999 -0.000488281 30.9766 -0.000488281 29.7142V2.28571C-0.000488281 1.02335 1.02286 0 2.28522 0H17.6618L28.2592 10.5974V29.7142C28.2592 30.9766 27.2358 31.9999 25.9735 31.9999Z" fill="url(#paint2_linear_155_1817)"/>
</mask>
<g mask="url(#mask1_155_1817)">
<ellipse opacity="0.05" cx="-1.50729" cy="-1.29831" rx="23.2207" ry="22.2857" fill="url(#paint3_linear_155_1817)"/>
<ellipse opacity="0.07" cx="-1.50712" cy="-1.29846" rx="14.5974" ry="13.974" fill="url(#paint4_linear_155_1817)"/>
</g>
<g filter="url(#filter1_d_155_1817)">
<path d="M28.2592 10.5974H19.9476C18.6852 10.5974 17.6619 9.57404 17.6619 8.31167V0L28.2592 10.5974Z" fill="url(#paint5_linear_155_1817)"/>
</g>
</g>
<defs>
<filter id="filter0_f_155_1817" x="0.934632" y="11.4285" width="26.5973" height="16.8314" filterUnits="userSpaceOnUse" color-interpolation-filters="sRGB">
<feFlood flood-opacity="0" result="BackgroundImageFix"/>
<feBlend mode="normal" in="SourceGraphic" in2="BackgroundImageFix" result="shape"/>
<feGaussianBlur stdDeviation="2.02597" result="effect1_foregroundBlur_155_1817"/>
</filter>
<filter id="filter1_d_155_1817" x="15.2723" y="-2.4935" width="15.7922" height="15.7925" filterUnits="userSpaceOnUse" color-interpolation-filters="sRGB">
<feFlood flood-opacity="0" result="BackgroundImageFix"/>
<feColorMatrix in="SourceAlpha" type="matrix" values="0 0 0 0 0 0 0 0 0 0 0 0 0 0 0 0 0 0 127 0" result="hardAlpha"/>
<feOffset dx="0.207792" dy="0.103896"/>
<feGaussianBlur stdDeviation="1.2987"/>
<feColorMatrix type="matrix" values="0 0 0 0 0 0 0 0 0 0 0 0 0 0 0 0 0 0 0.33 0"/>
<feBlend mode="normal" in2="BackgroundImageFix" result="effect1_dropShadow_155_1817"/>
<feBlend mode="normal" in="SourceGraphic" in2="effect1_dropShadow_155_1817" result="shape"/>
</filter>
<linearGradient id="paint0_linear_155_1817" x1="14.1296" y1="0" x2="14.1296" y2="31.9999" gradientUnits="userSpaceOnUse">
<stop stop-color="#FF7979"/>
<stop offset="1" stop-color="#E85555"/>
</linearGradient>
<linearGradient id="paint1_linear_155_1817" x1="14.1294" y1="0" x2="14.1294" y2="31.9999" gradientUnits="userSpaceOnUse">
<stop offset="0.000265127" stop-color="#83CC70"/>
<stop offset="1" stop-color="#61A850"/>
</linearGradient>
<linearGradient id="paint2_linear_155_1817" x1="14.1294" y1="0" x2="14.1294" y2="31.9999" gradientUnits="userSpaceOnUse">
<stop offset="0.000265127" stop-color="#83CC70"/>
<stop offset="1" stop-color="#61A850"/>
</linearGradient>
<linearGradient id="paint3_linear_155_1817" x1="0.178702" y1="-0.532483" x2="7.22068" y2="18.157" gradientUnits="userSpaceOnUse">
<stop stop-color="white" stop-opacity="0"/>
<stop offset="1" stop-color="white"/>
</linearGradient>
<linearGradient id="paint4_linear_155_1817" x1="-0.447243" y1="-0.818256" x2="3.95993" y2="10.9082" gradientUnits="userSpaceOnUse">
<stop stop-color="white" stop-opacity="0"/>
<stop offset="1" stop-color="white"/>
</linearGradient>
<linearGradient id="paint5_linear_155_1817" x1="22.9606" y1="0" x2="22.9606" y2="10.5974" gradientUnits="userSpaceOnUse">
<stop stop-color="#3FAF43"/>
<stop offset="1" stop-color="#0E8312"/>
</linearGradient>
</defs>
</svg>
